<svg width="18" height="19" viewBox="0 0 18 19" fill="none" xmlns="http://www.w3.org/2000/svg">
<g clip-path="url(#clip0_1_2212)">
<path d="M17.4673 15.8942L10.535 8.96192L2.43589 0.862778H1.80293L1.67369 1.19118C1.33258 2.058 1.18683 2.94457 1.25226 3.75493C1.32685 4.67866 1.67777 5.47838 2.26714 6.06776L8.58976 12.3904L9.42371 11.5564L15.269 18.0926C15.8504 18.674 16.8513 18.7085 17.4673 18.0926C18.0734 17.4864 18.0734 16.5003 17.4673 15.8942Z" fill="white"/>
<path d="M5.65957 10.9269L0.707715 15.8788C0.10166 16.4848 0.10166 17.471 0.707715 18.0771C1.28345 18.6528 2.27944 18.7036 2.90601 18.0771L7.85789 13.1252L5.65957 10.9269Z" fill="white"/>
<path d="M17.176 3.80609L14.3671 6.61503L13.6343 5.88225L16.4432 3.07328L15.7105 2.3405L12.9015 5.14944L12.1687 4.41667L14.9777 1.60773L14.245 0.874985L10.5811 4.53887C10.1329 4.98709 9.86524 5.58223 9.8274 6.21473C9.81783 6.37498 9.78151 6.53261 9.72125 6.68253L12.1013 9.06259C12.2512 9.00227 12.4089 8.96598 12.5691 8.95641C13.2016 8.91867 13.7968 8.65097 14.245 8.20275L17.9089 4.5389L17.176 3.80609Z" fill="white"/>
</g>
<defs>
<clipPath id="clip0_1_2212">
<rect width="17.6789" height="17.6789" fill="white" transform="translate(0.247742 0.863174)"/>
</clipPath>
</defs>
</svg>
