<svg width="20" height="20" viewBox="0 0 20 20" fill="none" xmlns="http://www.w3.org/2000/svg">
<g clip-path="url(#clip0_1_1881)">
<path d="M19.1306 16.6994L11.429 8.99769L2.43088 -0.000396729H1.72767L1.58408 0.36446C1.20511 1.32749 1.04319 2.31246 1.11588 3.21277C1.19874 4.23901 1.58861 5.12751 2.2434 5.7823L9.26779 12.8067L10.1943 11.8802L16.6883 19.1417C17.3343 19.7878 18.4462 19.8261 19.1306 19.1417C19.804 18.4683 19.804 17.3727 19.1306 16.6994Z" fill="#29D697"/>
<path d="M6.01241 11.1808L0.510942 16.6823C-0.16238 17.3556 -0.16238 18.4512 0.510942 19.1245C1.15058 19.7642 2.25712 19.8207 2.95323 19.1245L8.45473 13.623L6.01241 11.1808Z" fill="#29D697"/>
<path d="M18.8074 3.26956L15.6867 6.39027L14.8725 5.57616L17.9933 2.45541L17.1792 1.6413L14.0584 4.76201L13.2443 3.9479L16.3651 0.827193L15.551 0.0131226L11.4805 4.08367C10.9825 4.58164 10.6852 5.24284 10.6431 5.94554C10.6325 6.12358 10.5921 6.2987 10.5252 6.46527L13.1694 9.10949C13.336 9.04247 13.5111 9.00215 13.6891 8.99153C14.3918 8.9496 15.053 8.65218 15.551 8.15421L19.6216 4.0837L18.8074 3.26956Z" fill="#29D697"/>
</g>
<defs>
<clipPath id="clip0_1_1881">
<rect width="19.6411" height="19.6411" fill="white"/>
</clipPath>
</defs>
</svg>
